<svg xmlns="http://www.w3.org/2000/svg" width="19.913" height="24.868" viewBox="0 0 19.913 24.868"><g transform="translate(-48.65)"><g transform="translate(48.65)"><path d="M62.176,85.4H50.616a1.967,1.967,0,0,0-1.966,1.966v16.587a1.967,1.967,0,0,0,1.966,1.966H62.176a1.967,1.967,0,0,0,1.966-1.966V87.366A1.974,1.974,0,0,0,62.176,85.4Zm.586,18.548a.591.591,0,0,1-.591.591H50.611a.591.591,0,0,1-.591-.591V87.366a.591.591,0,0,1,.591-.591H62.171a.591.591,0,0,1,.591.591Z" transform="translate(-48.65 -81.051)" fill="#008acc"/><path d="M148.976,0H137.416a1.967,1.967,0,0,0-1.966,1.966.688.688,0,0,0,1.375,0,.591.591,0,0,1,.591-.591h11.561a.591.591,0,0,1,.591.591V18.553a.591.591,0,0,1-.591.591.688.688,0,0,0,0,1.375,1.967,1.967,0,0,0,1.966-1.966V1.966A1.967,1.967,0,0,0,148.976,0Z" transform="translate(-131.029)" fill="#008acc"/></g></g></svg>